<svg width="20" height="17" viewBox="0 0 20 17" fill="none" xmlns="http://www.w3.org/2000/svg">
<g id="About">
<path d="M18.0001 16.999L2.00006 16.999C0.930577 17.033 0.0364774 16.1421 6.10352e-05 15.006L6.10352e-05 1.99291C0.0364742 0.857018 0.930744 -0.0336583 2.00006 0.000944511L18.0001 0.000944511C19.0694 -0.0336583 19.9636 0.857018 20.0001 1.99291V15.0071C19.9631 16.1427 19.0692 17.033 18.0001 16.999ZM2.00006 1.99291L2.00006 15.006L18.0001 15.0071V1.99291L2.00006 1.99291ZM16.0001 6.99997H13.0001V5.99997H16.0001V6.99997ZM16.0001 4.99997L12.0001 4.99997V3.99997L16.0001 3.99997V4.99997Z" fill="white"/>
<path d="M7.00006 3.99997C5.00006 3.99997 5.00006 5.49997 5.00006 5.99997C5.00006 6.49997 5.00006 7.99997 7.00006 7.99997C9.00006 7.99997 9.00006 6.49997 9.00006 5.99997C9.00006 5.49997 9.00006 3.99997 7.00006 3.99997Z" fill="white"/>
<path d="M7.00006 8.99997C4.00006 8.99997 3.00006 13 3.00006 13L11.0001 13C11.0001 13 10.0001 8.99997 7.00006 8.99997Z" fill="white"/>
<path d="M16.0001 7.99997H12.0001V8.99997H16.0001V7.99997Z" fill="white"/>
<path d="M13.0001 9.99997H16.0001V11H13.0001V9.99997Z" fill="white"/>
<path d="M13.0001 12H16.0001V13H13.0001V12Z" fill="white"/>
<path d="M10.0001 3.99997C10.0001 3.99997 10.5001 3.49997 11.0001 3.99997C11.0001 3.99997 11.5001 4.49997 11.0001 4.99997C11.0001 4.99997 10.5001 5.49997 10.0001 4.99997C10.0001 4.99997 9.50006 4.49997 10.0001 3.99997Z" fill="white"/>
<path d="M10.0001 3.99997C10.0001 3.99997 10.5001 3.49997 11.0001 3.99997C11.0001 3.99997 11.5001 4.49997 11.0001 4.99997C11.0001 4.99997 10.5001 5.49997 10.0001 4.99997C10.0001 4.99997 9.50006 4.49997 10.0001 3.99997Z" fill="white"/>
<path d="M10.0001 7.99997C10.0001 7.99997 10.5001 7.49997 11.0001 7.99997C11.0001 7.99997 11.5001 8.49997 11.0001 8.99997C11.0001 8.99997 10.5001 9.49997 10.0001 8.99997C10.0001 8.99997 9.50006 8.49997 10.0001 7.99997Z" fill="white"/>
<path d="M10.0001 7.99997C10.0001 7.99997 10.5001 7.49997 11.0001 7.99997C11.0001 7.99997 11.5001 8.49997 11.0001 8.99997C11.0001 8.99997 10.5001 9.49997 10.0001 8.99997C10.0001 8.99997 9.50006 8.49997 10.0001 7.99997Z" fill="white"/>
</g>
</svg>
