<svg width="936" height="433" viewBox="0 0 936 433" fill="none" xmlns="http://www.w3.org/2000/svg">
<g filter="url(#filter0_d)">
<path d="M31 -73.0001L24.3043 -42.4685L929.304 374.532L952 384.989L952 360L952 -57L952 -73L936 -73L31 -73.0001Z" fill="#171717" stroke="#171717" stroke-width="32"/>
<path d="M31 -69.0001L25.9782 -46.1014L930.978 370.899L948 378.742L948 360L948 -57L948 -69L936 -69L31 -69.0001Z" fill="#171717"/>
<path d="M31 -69.0001L25.9782 -46.1014L930.978 370.899L948 378.742L948 360L948 -57L948 -69L936 -69L31 -69.0001Z" stroke="#68EDFF" stroke-width="24"/>
<path d="M31 -69.0001L25.9782 -46.1014L930.978 370.899L948 378.742L948 360L948 -57L948 -69L936 -69L31 -69.0001Z" stroke="url(#paint0_linear)" stroke-width="24"/>
</g>
<defs>
<filter id="filter0_d" x="0.608398" y="-89.0001" width="967.392" height="521.978" filterUnits="userSpaceOnUse" color-interpolation-filters="sRGB">
<feFlood flood-opacity="0" result="BackgroundImageFix"/>
<feColorMatrix in="SourceAlpha" type="matrix" values="0 0 0 0 0 0 0 0 0 0 0 0 0 0 0 0 0 0 127 0"/>
<feOffset dx="-13" dy="19"/>
<feGaussianBlur stdDeviation="2"/>
<feColorMatrix type="matrix" values="0 0 0 0 0 0 0 0 0 0 0 0 0 0 0 0 0 0 0.35 0"/>
<feBlend mode="normal" in2="BackgroundImageFix" result="effect1_dropShadow"/>
<feBlend mode="normal" in="SourceGraphic" in2="effect1_dropShadow" result="shape"/>
</filter>
<linearGradient id="paint0_linear" x1="685.776" y1="256.009" x2="555.173" y2="-70.9267" gradientUnits="userSpaceOnUse">
<stop offset="0.0347218" stop-color="#68EDFF" stop-opacity="0"/>
<stop offset="0.213218" stop-color="white"/>
<stop offset="0.383763" stop-color="white" stop-opacity="0"/>
</linearGradient>
</defs>
</svg>
