<svg width="20" height="17" viewBox="0 0 20 17" fill="none" xmlns="http://www.w3.org/2000/svg">
<path d="M5.00006 6.5V8.5L7.00006 7.5L5.00006 6.5Z" fill="#68EDFF"/>
<path d="M3.00007 13V14H17.0001V13H3.00007Z" fill="#68EDFF"/>
<path fill-rule="evenodd" clip-rule="evenodd" d="M8.00006 5C9.00006 5 9.00005 6 9.00005 6V9C9.00005 9 9.00005 10 8.00005 10H4.00006C3.00006 10 3.00006 9 3.00006 9L3.00007 6C3.00007 6 3.00007 5 4.00007 5H8.00006ZM4.00007 9V6H8.00006L8.00005 9H4.00007Z" fill="#68EDFF"/>
<path d="M10.0001 5V6H13.0001V5H10.0001Z" fill="#68EDFF"/>
<path d="M3.00007 3V4H13.0001L13.0001 3H3.00007Z" fill="#68EDFF"/>
<path d="M10.0001 7V8H17.0001V7H10.0001Z" fill="#68EDFF"/>
<path fill-rule="evenodd" clip-rule="evenodd" d="M2.00006 0L16.0001 0L20.0001 4V15C20.0001 15 20.0001 17 18.0001 17H2.00006C6.10352e-05 17 6.10352e-05 15.01 6.10352e-05 15.01V2C6.10352e-05 2 6.10352e-05 0 2.00006 0ZM18.0001 4L16.0001 2V3C16.0001 3.5 16.0001 3.75 16.1251 3.875C16.2501 4 16.5001 4 17.0001 4H18.0001ZM2.00006 15.01V2H14.0001V4C14.0001 5 15.0001 6 16.0001 6H17.0001H18.0001V15.01H2.00006ZM3.00007 13V14H17.0001V13H3.00007ZM5.00006 6.5L7.00006 7.5L5.00006 8.5V6.5Z" fill="#68EDFF"/>
<path d="M3.00008 11L3.00006 12H17.0001V11H3.00008Z" fill="#68EDFF"/>
<path d="M10.0001 9V10H17.0001V9H10.0001Z" fill="#68EDFF"/>
</svg>
