<svg width="20" height="17" viewBox="0 0 20 17" fill="none" xmlns="http://www.w3.org/2000/svg">
<path d="M16.0001 17H1.00007C0.734655 17.0026 0.479416 16.8979 0.292392 16.7096C0.105368 16.5213 0.00245666 16.2653 0.00706107 15.9999H6.10352e-05L6.10352e-05 1.99998C6.10352e-05 0.895422 0.895496 0 2.00007 0L8.0001 0C8.22347 0.000212988 8.44033 0.0751972 8.61611 0.212998L10.9001 1.99998L16.0001 1.99998C17.1048 1.99998 18.0002 2.8954 18.0002 3.99997V7.99993H19.0002C19.3363 7.99997 19.65 8.16888 19.835 8.44952C20.02 8.73015 20.0516 9.08497 19.9192 9.39392L16.9192 16.3939C16.7616 16.7615 16.4001 17 16.0001 17ZM4.66009 9.99991L2.51707 14.9999H15.3411L17.4842 9.99991H4.66009ZM2.00007 3.99997L2.00007 11.1299L3.08108 8.60593C3.23866 8.23833 3.60012 7.99997 4.00008 7.99993L16.0001 7.99993V3.99997L2.00007 3.99997Z" fill="#68EDFF"/>
</svg>
