<svg width="20" height="17" viewBox="0 0 20 17" fill="none" xmlns="http://www.w3.org/2000/svg">
<path fill-rule="evenodd" clip-rule="evenodd" d="M14.0001 4H18.0001C19.1101 4 20.0001 5.00684 20.0001 6V15C20.0001 15.9932 19.1101 17 18.0001 17H2.00013C0.890134 17 9.82115e-05 15.9932 9.82115e-05 15V6C9.82115e-05 5.00684 0.890109 4 2.00011 4H6.00011L6.00012 2C6.00012 1.00684 6.89011 0 8.00011 0L12.0001 0C13.1101 0 14.0001 1.00684 14.0001 2V4ZM8.00012 4H12.0001V2H8.00011L8.00012 4ZM18.0001 6H2.00012L2.00013 15H18.0001V6Z" fill="#68EDFF"/>
<path fill-rule="evenodd" clip-rule="evenodd" d="M7.00011 7H13.0001C13.491 7 14.0001 7.50585 14.0001 8L14.0001 13C14.0001 13.4429 13.5501 14 13.0001 14H7.00011C6.45011 14 6.00011 13.4429 6.00011 13V8C6.00011 7.55711 6.45011 7 7.00011 7ZM9.00006 13H13.0001V12H9.00006V13ZM9.00006 11H13.0001L13.0001 10H9.00006V11ZM9.00006 8V9H13.0001L13.0001 8H9.00006ZM7.00006 8L7.00011 9H8.00006V8H7.00006ZM7.00011 13L7.00006 12H8.00006V13H7.00011Z" fill="#68EDFF"/>
</svg>
